# xmcd
#
# Track frame offsets:
#	150
#	13720
#	32744
#	55909
#	81994
#	102749
#	124267
#	147411
#	166085
#	197936
#	222223
#
# Disc length: 3251 seconds
#
# Revision: 7
# Processed by: cddbd v1.5.2PL0 Copyright (c) Steve Scherf et al.
# Submitted via: Jack! The Knife 20 Magnifico
#
DISCID=a10cb10b
DTITLE=Loudness - Metal Mad
DYEAR=2008
DGENRE=Heavy Metal
TTITLE0=Fire Of Spirit
TTITLE1=Metal Mad
TTITLE2=High Flyer
TTITLE3=Spellbound #9
TTITLE4=Crimson Paradox
TTITLE5=Black And White
TTITLE6=Whatsoever
TTITLE7=Call Of The Reaper
TTITLE8=Can't Find My Way
TTITLE9=Gravity
TTITLE10=Transformation
EXTD=Loudness
EXTT0=Akira Takasaki
EXTT1=Akira Takasaki
EXTT2=Akira Takasaki
EXTT3=Akira Takasaki
EXTT4=Akira Takasaki
EXTT5=Akira Takasaki
EXTT6=Akira Takasaki
EXTT7=Akira Takasaki
EXTT8=Akira Takasaki
EXTT9=Akira Takasaki
EXTT10=Akira Takasaki
PLAYORDER=
